<svg width="32" height="62" viewBox="0 0 32 62" fill="none" xmlns="http://www.w3.org/2000/svg">
<path d="M10.6464 32.6089L14.4197 28.8355L6.16636 20.5955C5.52636 19.9555 4.41969 20.1289 4.01969 20.9555C3.07302 22.9422 3.41969 25.3822 5.05969 27.0355L10.6464 32.6089ZM19.6864 30.1955C21.7264 31.1422 24.593 30.4755 26.713 28.3555C29.2597 25.8089 29.753 22.1555 27.793 20.1955C25.8464 18.2489 22.193 18.7289 19.633 21.2755C17.513 23.3955 16.8464 26.2622 17.793 28.3022L5.71302 40.3822C5.46372 40.6315 5.32366 40.9696 5.32366 41.3222C5.32366 41.6748 5.46372 42.0129 5.71302 42.2622C5.96233 42.5115 6.30046 42.6516 6.65302 42.6516C7.00559 42.6516 7.34372 42.5115 7.59302 42.2622L15.8464 34.0355L24.0864 42.2755C24.2098 42.399 24.3563 42.4969 24.5176 42.5637C24.6789 42.6305 24.8518 42.6649 25.0264 42.6649C25.2009 42.6649 25.3738 42.6305 25.5351 42.5637C25.6964 42.4969 25.8429 42.399 25.9664 42.2755C26.0898 42.1521 26.1877 42.0055 26.2545 41.8443C26.3213 41.683 26.3557 41.5101 26.3557 41.3355C26.3557 41.161 26.3213 40.9881 26.2545 40.8268C26.1877 40.6655 26.0898 40.519 25.9664 40.3955L17.7264 32.1555L19.6864 30.1955Z" fill="#02E4C0"/>
</svg>
