<svg width="34" height="60" viewBox="0 0 34 60" fill="none" xmlns="http://www.w3.org/2000/svg">
<path d="M14.5495 28.395C16.0285 30.855 15.811 33.75 14.042 34.92C12.273 36.06 9.634 34.995 8.1405 32.535C6.6615 30.075 6.8935 27.15 8.6625 26.01C10.4315 24.87 13.0705 25.935 14.5495 28.395ZM17 38.625C19.9 38.625 20.625 37.5 20.625 37.5C20.625 37.5 19.9 40.5 17 40.5C14.1 40.5 13.375 37.545 13.375 37.5C13.375 37.5 14.1 38.625 17 38.625ZM25.3375 26.01C27.1065 27.15 27.3385 30.075 25.8595 32.535C24.366 34.995 21.727 36.06 19.958 34.92C18.189 33.75 17.9715 30.855 19.4505 28.395C20.9295 25.935 23.5685 24.87 25.3375 26.01ZM17 42C20.625 42 28.6 34.29 28.6 28.5C28.6 22.71 23.3945 18 17 18C10.6055 18 5.4 22.71 5.4 28.5C5.4 34.29 13.375 42 17 42ZM17 15C24.975 15 31.5 21.06 31.5 28.5C31.5 34.62 23.264 45 17 45C10.736 45 2.5 34.62 2.5 28.5C2.5 21.06 9.025 15 17 15Z" fill="#02E4C0"/>
</svg>
